<?xml version="1.0" encoding="UTF-8" standalone="no"?>
<!-- Generator: Adobe Illustrator 19.0.0, SVG Export Plug-In . SVG Version: 6.00 Build 0)  -->

<svg
   version="1.1"
   id="Layer_1"
   x="0px"
   y="0px"
   viewBox="0 0 512.003 512.003"
   style="enable-background:new 0 0 512.003 512.003;"
   xml:space="preserve"
   sodipodi:docname="1652445661linkedin-social-media-svgrepo-com.svg"
   inkscape:version="1.1.1 (3bf5ae0d25, 2021-09-20)"
   xmlns:inkscape="http://www.inkscape.org/namespaces/inkscape"
   xmlns:sodipodi="http://sodipodi.sourceforge.net/DTD/sodipodi-0.dtd"
   xmlns="http://www.w3.org/2000/svg"
   xmlns:svg="http://www.w3.org/2000/svg"><defs
   id="defs47" /><sodipodi:namedview
   id="namedview45"
   pagecolor="#ffffff"
   bordercolor="#666666"
   borderopacity="1.0"
   inkscape:pageshadow="2"
   inkscape:pageopacity="0.0"
   inkscape:pagecheckerboard="0"
   showgrid="false"
   inkscape:zoom="1.1628524"
   inkscape:cx="107.92427"
   inkscape:cy="230.89775"
   inkscape:window-width="1920"
   inkscape:window-height="1009"
   inkscape:window-x="-8"
   inkscape:window-y="-8"
   inkscape:window-maximized="1"
   inkscape:current-layer="Layer_1" />
<g
   transform="matrix(1,0,0,1.0162887,0,-4.9880631)"
   id="g12"
   style="fill:#999999;fill-opacity:1">
	<g
   id="g10"
   style="fill:#999999;fill-opacity:1">
		<g
   id="g8"
   style="fill:#999999;fill-opacity:1">
			<path
   d="m 68.762,5.195 h -0.06 C 50.441,5.195 33.22,12.295 20.224,25.18 7.185,38.1 0,55.243 0,73.453 c -0.009,18.611 7.33,36.053 20.625,49.092 12.894,12.629 30.481,19.721 47.531,19.311 0.495,0.009 0.99,0.017 1.493,0.017 17.092,0 34.014,-6.963 46.618,-19.251 C 129.553,109.677 136.892,92.303 136.935,73.7 136.978,55.507 129.861,38.338 116.916,25.342 103.979,12.363 86.878,5.212 68.762,5.195 Z"
   id="path2"
   style="fill:#999999;fill-opacity:1" />
			<path
   d="M 102.403,158.941 H 33.411 c -13.713,0 -24.875,11.511 -24.875,25.651 v 298.615 c 0,13.841 11.725,25.532 25.6,25.532 h 68.267 c 13.875,0 25.6,-11.46 25.6,-25.011 V 184.541 c 0,-13.875 -11.724,-25.6 -25.6,-25.6 z"
   id="path4"
   style="fill:#999999;fill-opacity:1" />
			<path
   d="m 393.645,150.408 h -17.98 c -33.135,0 -64.922,14.114 -85.53,37.427 v -11.827 c 0,-8.457 -8.619,-17.067 -17.067,-17.067 h -85.333 c -7.893,0 -17.067,6.997 -17.067,16.017 v 318.404 c 0,9.054 8.994,15.369 17.067,15.377 l 93.867,0.026 c 8.073,0 17.067,-6.315 17.067,-15.377 V 309.435 c 0,-27.75 20.574,-49.724 46.839,-50.022 13.355,-0.299 25.975,4.966 35.422,14.43 7.808,7.808 11.605,19.208 11.605,34.859 v 183.04 c 0,8.457 8.619,17.067 17.067,17.067 h 85.333 c 8.448,0 17.067,-8.61 17.067,-17.067 V 271.496 c 0.001,-67.9 -51.993,-121.088 -118.357,-121.088 z"
   id="path6"
   style="fill:#999999;fill-opacity:1" />
		</g>
	</g>
</g>
</svg>
