<?xml version="1.0" encoding="UTF-8" standalone="no"?>
<svg
   viewBox="0 0 61.7998 61.7998"
   version="1.1"
   id="svg26"
   sodipodi:docname="icon.svg"
   inkscape:version="1.1.1 (3bf5ae0d25, 2021-09-20)"
   inkscape:export-filename="D:\icons\best\short_iconfinder_avatar-370-456322_6415362.png"
   inkscape:export-xdpi="701.59998"
   inkscape:export-ydpi="701.59998"
   xmlns:inkscape="http://www.inkscape.org/namespaces/inkscape"
   xmlns:sodipodi="http://sodipodi.sourceforge.net/DTD/sodipodi-0.dtd"
   xmlns="http://www.w3.org/2000/svg"
   xmlns:svg="http://www.w3.org/2000/svg"
   xmlns:rdf="http://www.w3.org/1999/02/22-rdf-syntax-ns#"
   xmlns:cc="http://creativecommons.org/ns#"
   xmlns:dc="http://purl.org/dc/elements/1.1/">
  <metadata
     id="metadata32">
    <rdf:RDF>
      <cc:Work
         rdf:about="">
        <dc:format>image/svg+xml</dc:format>
        <dc:type
           rdf:resource="http://purl.org/dc/dcmitype/StillImage" />
      </cc:Work>
    </rdf:RDF>
  </metadata>
  <defs
     id="defs30" />
  <sodipodi:namedview
     inkscape:snap-global="false"
     inkscape:document-rotation="0"
     pagecolor="#ffffff"
     bordercolor="#666666"
     borderopacity="1"
     objecttolerance="10"
     gridtolerance="10"
     guidetolerance="10"
     inkscape:pageopacity="0"
     inkscape:pageshadow="2"
     inkscape:window-width="1920"
     inkscape:window-height="1009"
     id="namedview28"
     showgrid="false"
     inkscape:zoom="14.401341"
     inkscape:cx="16.352644"
     inkscape:cy="29.268108"
     inkscape:window-x="-8"
     inkscape:window-y="-8"
     inkscape:window-maximized="1"
     inkscape:current-layer="_ÎÓÈ_1"
     inkscape:pagecheckerboard="0" />
  <g
     data-name="Layer 2"
     id="Layer_2">
    <g
       data-name="—ÎÓÈ 1"
       id="_ÎÓÈ_1">
      <circle
         r="30.8999"
         style="fill:#2a7fff"
         cx="30.8999"
         cy="30.691586"
         fill="#ffc200"
         id="circle4" />
      <path
         style="fill:#ff0000"
         sodipodi:nodetypes="cccacccccacc"
         id="path6-8"
         fill-rule="evenodd"
         fill="#677079"
         d="m 52.525086,52.870214 c -12.142506,11.9685 -31.685083,11.838267 -43.6669999,-0.291 0.7359084,-2.035093 2.1652289,-3.745888 4.0369999,-4.832 0.695974,-0.51457 2.009651,-1.139218 2.981898,-1.761774 1.1658,-0.746493 2.76671,-2.090183 3.414763,-2.36357 -3.095759,-4.042469 0.542776,-6.136013 3.810777,-5.879311 3.780705,0.688296 3.265,1.173 7.317,1.217 3.336,0.037 4.583137,-0.655033 8.363842,-1.206128 4.357401,-1.025302 7.893119,2.223981 4.894618,5.68628 1.128739,0.551903 3.259857,2.680007 4.703102,4.211503 1.523661,1.61683 3.386703,3.064755 4.144,5.22 z" />
      <path
         sodipodi:nodetypes="ccccccccccc"
         d="m 24.032,38.68 14.295058,0.02056 0.244416,3.236388 c 0.03106,0.574922 0.0792,0.867008 -0.05423,1.474802 -0.966,5.074 -4.190361,5.611609 -7.650976,7.602551 C 27.439251,49.134394 24.354,47.338 24.045,42.563 l -0.013,-0.059 v -0.2 c -0.0021,-0.06898 -0.0035,-0.137987 -0.004,-0.207 0,0.036 0.003,0.07 0.004,0.106 z"
         fill="#f9dca4"
         fill-rule="evenodd"
         id="path8" />
      <path
         sodipodi:nodetypes="cccccc"
         d="m 38.328058,38.686438 0.243154,3.289104 c -0.0029,0.371236 0.07803,0.676403 0.01772,1.042719 -0.07573,0.453417 -0.133787,0.723054 -0.258484,1.190803 C 33.146444,48.124064 25.034,45.755 23.715,39.068 Z"
         fill-rule="evenodd"
         opacity="0.11"
         id="path10" />
      <path
         d="m 18.312314,25.026686 c -4.94,1.27 -0.74,7.29 2.367,7.264 a 19.805,19.805 0 0 1 -2.367,-7.264 z"
         fill="#f9dca4"
         fill-rule="evenodd"
         id="path12" />
      <path
         d="m 43.297756,25.106859 c 5.035132,0.814828 1.400838,7.192312 -1.696706,7.448475 a 19.8,19.8 0 0 0 1.696706,-7.448475 z"
         fill="#f9dca4"
         fill-rule="evenodd"
         id="path14" />
      <path
         d="m 30.733,12.194256 c 20.523,0 12.525,30.779488 0,30.779488 -11.83,0 -20.523,-30.779488 0,-30.779488 z"
         fill="#ffe8be"
         fill-rule="evenodd"
         id="path16"
         style="stroke-width:0.97398" />
      <path
         sodipodi:nodetypes="aaaaaaaaaaacaaaaaaasscccccaasaca"
         d="m 18.687142,24.364324 c 0.177045,-1.364833 0.521977,-2.71649 1.009701,-4.003439 0.385259,-1.016577 0.865997,-2.012594 1.498659,-2.896672 0.713124,-0.996515 1.573399,-1.906206 2.545394,-2.652405 0.790106,-0.606564 1.676907,-1.113763 2.617439,-1.441768 1.202513,-0.41937 2.49399,-0.603222 3.767072,-0.637459 1.212744,-0.03261 2.441441,0.109743 3.615983,0.413494 1.183845,0.306156 2.345159,0.766717 3.38973,1.402401 0.925397,0.563158 1.760785,1.289224 2.483321,2.096348 0.640094,0.715028 1.180576,1.52974 1.603262,2.391322 0.654883,1.334878 1.114885,2.774624 1.409804,4.231947 0.331489,1.638025 0.272902,3.766732 0.389559,4.998534 0,0 0.217346,-1.348431 0.275555,-2.028232 0.04384,-0.511938 0.06866,-1.026811 0.05518,-1.540445 -0.02515,-0.958376 -0.08656,-1.920871 -0.25357,-2.86492 -0.134772,-0.761833 -0.339442,-1.513715 -0.600958,-2.241838 -0.298324,-0.830607 -0.677101,-1.633559 -1.098255,-2.409145 -0.352953,-0.649988 -0.738711,-1.287103 -1.192164,-1.871439 -0.367695,-0.473824 -0.786598,-0.909328 -1.229966,-1.313225 -0.333195,-0.303532 -0.848531,-0.700089 -1.06856,-0.828572 -1.728452,-1.009306 -1.659282,-0.876407 -0.748477,-1.392567 l 1.28697,-0.729335 c 0,0 -2.808626,-0.946064 -3.878056,-0.488614 L 35.39391,8.8531609 c 0,0 -5.371644,0.010705 -8.395118,2.4358991 l 0.103645,-1.217951 c 0,0 -3.299648,2.692814 -4.735356,4.255688 -0.800987,0.871934 -1.582425,1.790023 -2.142065,2.833408 -0.826234,1.540417 -1.424656,3.22838 -1.73549,4.948534 -0.150649,0.833689 -0.299553,2.096349 -0.265362,3.149271 0.03079,0.948077 0.422404,2.814206 0.422404,2.814206 0.186605,-1.2959 -0.118432,-2.482124 0.04057,-3.707892 z"
         fill-rule="nonzero"
         id="Shape 7"
         style="fill:#5e4f30;fill-opacity:1;stroke:none;stroke-width:0.121393" />
      <path
         style="fill:#800000"
         id="path20"
         fill-rule="evenodd"
         fill="#434955"
         d="m 19.22524,49.111973 c 0.03,0.038 10.418,13.483 22.63,-0.2 -1.475,4.052 -7.837,7.27 -11.476,7.26 -6.95,-0.02 -10.796,-5.6 -11.154,-7.06 z" />
      <path
         id="path22"
         fill-rule="evenodd"
         fill="#e6e6e6"
         d="m 35.77124,61.272973 c -0.41,0.072 -0.822,0.135 -1.237,0.192 v -8.937 a 0.576,0.576 0 0 1 0.618,-0.516 0.576,0.576 0 0 1 0.619,0.516 z m -9.82,0.166 q -0.622,-0.089 -1.237,-0.2 v -8.711 a 0.576,0.576 0 0 1 0.618,-0.516 0.576,0.576 0 0 1 0.62,0.516 z" />
    </g>
  </g>
</svg>
