<?xml version="1.0" encoding="UTF-8" standalone="no"?>
<svg
   viewBox="0 0 64 64"
   width="128px"
   height="128px"
   version="1.1"
   id="svg48"
   sodipodi:docname="instagram.svg"
   inkscape:version="1.1.1 (3bf5ae0d25, 2021-09-20)"
   xmlns:inkscape="http://www.inkscape.org/namespaces/inkscape"
   xmlns:sodipodi="http://sodipodi.sourceforge.net/DTD/sodipodi-0.dtd"
   xmlns="http://www.w3.org/2000/svg"
   xmlns:svg="http://www.w3.org/2000/svg">
  <defs
     id="defs52" />
  <sodipodi:namedview
     id="namedview50"
     pagecolor="#ffffff"
     bordercolor="#666666"
     borderopacity="1.0"
     inkscape:pageshadow="2"
     inkscape:pageopacity="0.0"
     inkscape:pagecheckerboard="0"
     showgrid="false"
     inkscape:zoom="4.6514368"
     inkscape:cx="33.645518"
     inkscape:cy="69.118428"
     inkscape:window-width="1920"
     inkscape:window-height="1009"
     inkscape:window-x="-8"
     inkscape:window-y="-8"
     inkscape:window-maximized="1"
     inkscape:current-layer="svg48" />
  <radialGradient
     id="TGwjmZMm2W~B4yrgup6jda"
     cx="32"
     cy="32.5"
     r="31.259"
     gradientTransform="matrix(1 0 0 -1 0 64)"
     gradientUnits="userSpaceOnUse">
    <stop
       offset="0"
       stop-color="#efdcb1"
       id="stop2" />
    <stop
       offset="0.36199999"
       stop-color="#f2e0bc"
       id="stop6" />
    <stop
       offset=".362"
       stop-color="#f9edd2"
       id="stop8" />
    <stop
       offset=".699"
       stop-color="#fef4df"
       id="stop10" />
    <stop
       offset="1"
       stop-color="#fff7e4"
       id="stop12" />
  </radialGradient>
  <radialGradient
     id="TGwjmZMm2W~B4yrgup6jdb"
     cx="18.51"
     cy="66.293"
     r="69.648"
     gradientTransform="matrix(.6435 -.7654 .5056 .4251 -26.92 52.282)"
     gradientUnits="userSpaceOnUse">
    <stop
       offset=".073"
       stop-color="#eacc7b"
       id="stop17" />
    <stop
       offset=".184"
       stop-color="#ecaa59"
       id="stop19" />
    <stop
       offset=".307"
       stop-color="#ef802e"
       id="stop21" />
    <stop
       offset=".358"
       stop-color="#ef6d3a"
       id="stop23" />
    <stop
       offset=".46"
       stop-color="#f04b50"
       id="stop25" />
    <stop
       offset=".516"
       stop-color="#f03e58"
       id="stop27" />
    <stop
       offset=".689"
       stop-color="#db359e"
       id="stop29" />
    <stop
       offset=".724"
       stop-color="#ce37a4"
       id="stop31" />
    <stop
       offset=".789"
       stop-color="#ac3cb4"
       id="stop33" />
    <stop
       offset=".877"
       stop-color="#7544cf"
       id="stop35" />
    <stop
       offset=".98"
       stop-color="#2b4ff2"
       id="stop37" />
  </radialGradient>
  <path
     fill="url(#TGwjmZMm2W~B4yrgup6jdb)"
     d="M 50.12698,63.987088 H 13.980513 C 6.3341455,63.987088 0.0780256,57.730969 0.0780256,50.0846 V 13.938133 c 0,-7.6463671 6.2561199,-13.90248708 13.9024874,-13.90248708 H 50.12698 c 7.646369,0 13.902488,6.25611998 13.902488,13.90248708 V 50.0846 c 0,7.646369 -6.256119,13.902488 -13.902488,13.902488 z"
     id="path40"
     style="fill:#b3b3b3;stroke-width:1.39025" />
  <path
     fill="#ffffff"
     d="m 32.053747,12.547884 c 6.395144,0 7.090269,0 9.592716,0.139025 2.363423,0.139026 3.614648,0.5561 4.448796,0.834149 1.112199,0.417075 1.946348,0.973176 2.780497,1.807323 0.83415,0.83415 1.390249,1.668299 1.807324,2.780499 0.27805,0.834149 0.695125,2.085373 0.834149,4.448795 0,2.363423 0,3.058547 0,9.453692 0,6.395144 0,7.090269 -0.139024,9.592716 -0.139025,2.363423 -0.5561,3.614648 -0.83415,4.448797 -0.417075,1.112198 -0.973174,1.946347 -1.807323,2.780497 -0.834149,0.83415 -1.668299,1.390248 -2.780499,1.807323 -0.834147,0.27805 -2.085371,0.695125 -4.448795,0.834149 -2.363422,0 -3.058547,0 -9.453691,0 -6.395145,0 -7.090269,0 -9.592716,-0.139024 -2.363424,-0.139025 -3.614647,-0.5561 -4.448796,-0.83415 -1.112199,-0.417075 -1.946349,-0.973173 -2.780498,-1.807323 -0.83415,-0.834149 -1.390248,-1.668299 -1.807323,-2.780498 -0.27805,-0.834148 -0.695125,-2.085372 -0.83415,-4.448796 0,-2.363422 0,-3.058547 0,-9.453691 0,-6.395145 0,-7.090269 0.139025,-9.592716 0.139026,-2.363424 0.5561,-3.614647 0.834149,-4.448795 0.417075,-1.1122 0.973175,-1.94635 1.807323,-2.780498 0.83415,-0.83415 1.668299,-1.390249 2.780498,-1.807324 0.83415,-0.27805 2.085374,-0.695125 4.448796,-0.83415 2.363423,0 3.058547,0 9.453692,0 m 0,-4.1707464 c -6.395145,0 -7.229294,0 -9.731741,0.139026 -2.502448,0.139025 -4.170747,0.5560988 -5.70002,1.1121987 -1.529274,0.5560997 -2.919522,1.3902487 -4.170746,2.7804977 -1.251225,1.390249 -2.085373,2.641473 -2.7804984,4.170746 -0.5560991,1.529274 -0.9731737,3.197572 -1.1121982,5.70002 -0.1390258,2.502447 -0.1390258,3.336596 -0.1390258,9.731741 0,6.395144 0,7.229294 0.1390258,9.731742 0.1390245,2.502447 0.5560991,4.170745 1.1121982,5.700019 0.5561004,1.529275 1.3902494,2.919523 2.7804984,4.170747 1.251224,1.251224 2.641472,2.085373 4.170746,2.780497 1.529273,0.556099 3.197572,0.973174 5.70002,1.1122 2.502447,0.139024 3.336596,0.139024 9.731741,0.139024 6.395144,0 7.229294,0 9.731742,-0.139024 2.502447,-0.139026 4.170744,-0.556101 5.700019,-1.1122 1.529274,-0.556099 2.919523,-1.390248 4.170747,-2.780497 1.251223,-1.251224 2.085373,-2.641472 2.780497,-4.170747 0.556099,-1.529274 0.973173,-3.197572 1.112199,-5.700019 0.139024,-2.502448 0.139024,-3.336598 0.139024,-9.731742 0,-6.395145 0,-7.229294 -0.139024,-9.731741 -0.139026,-2.502448 -0.5561,-4.170746 -1.112199,-5.70002 C 53.880653,15.050333 53.046503,13.660084 51.656255,12.40886 50.266005,11.157636 49.014782,10.323487 47.485508,9.6283623 45.956233,9.0722624 44.287936,8.6551886 41.785489,8.5161636 39.283041,8.3771376 38.448891,8.3771376 32.053747,8.3771376 Z"
     id="path42"
     style="stroke-width:1.39025" />
  <path
     fill="#ffffff"
     d="m 32.053747,19.499128 c -6.951244,0 -12.512239,5.560995 -12.512239,12.512239 0,6.951244 5.560995,12.512238 12.512239,12.512238 6.951244,0 12.512238,-5.560994 12.512238,-12.512238 0,-6.951244 -5.560994,-12.512239 -12.512238,-12.512239 z m 0,20.853733 c -4.587821,0 -8.341492,-3.753672 -8.341492,-8.341494 0,-4.58782 3.753671,-8.341492 8.341492,-8.341492 4.587821,0 8.341493,3.753672 8.341493,8.341492 0,4.587822 -3.753672,8.341494 -8.341493,8.341494 z"
     id="path44"
     style="stroke-width:1.39025" />
  <circle
     cx="44.56599"
     cy="19.499128"
     fill="#ffffff"
     id="circle46"
     r="2.7804978"
     style="stroke-width:1.39025" />
</svg>
