<?xml version="1.0" encoding="UTF-8" standalone="no"?>
<svg
   version="1.1"
   id="Layer_1"
   x="0px"
   y="0px"
   viewBox="0 0 122.88 119.72"
   style="enable-background:new 0 0 122.88 119.72"
   xml:space="preserve"
   sodipodi:docname="expand-arrow-icon.svg"
   inkscape:version="1.1.1 (3bf5ae0d25, 2021-09-20)"
   xmlns:inkscape="http://www.inkscape.org/namespaces/inkscape"
   xmlns:sodipodi="http://sodipodi.sourceforge.net/DTD/sodipodi-0.dtd"
   xmlns="http://www.w3.org/2000/svg"
   xmlns:svg="http://www.w3.org/2000/svg"><defs
     id="defs9" /><sodipodi:namedview
     id="namedview7"
     pagecolor="#ffffff"
     bordercolor="#666666"
     borderopacity="1.0"
     inkscape:pageshadow="2"
     inkscape:pageopacity="0.0"
     inkscape:pagecheckerboard="0"
     showgrid="false"
     inkscape:zoom="8.493314"
     inkscape:cx="17.9553"
     inkscape:cy="56.456173"
     inkscape:window-width="1920"
     inkscape:window-height="1009"
     inkscape:window-x="-8"
     inkscape:window-y="-8"
     inkscape:window-maximized="1"
     inkscape:current-layer="g4"
     inkscape:snap-text-baseline="false" /><g
     id="g4"><path
       style="fill:none;stroke-width:0.166509"
       d="M 59.315286,75.035831 C 57.078853,74.092148 54.158898,71.090185 43.45085,58.725843 c -2.285094,-2.638546 -4.434689,-5.14867 -4.776878,-5.578053 -1.654333,-2.075876 -1.558088,-4.979759 0.229885,-6.936087 1.181079,-1.292288 2.358998,-1.837043 3.972221,-1.837043 2.298883,0 1.819056,-0.415749 10.573324,9.161318 l 7.825925,8.56147 1.480679,-1.534996 c 0.814372,-0.844248 2.986774,-3.333294 4.827558,-5.531214 4.052757,-4.839044 4.456302,-5.295168 6.910009,-7.810344 2.390059,-2.449933 3.102138,-2.847143 5.097749,-2.843612 1.633409,0.0029 2.63757,0.408985 3.775774,1.526965 2.013437,1.977663 2.232325,5.087644 0.509588,7.240256 -0.71515,0.893601 -9.037753,10.37141 -12.257285,13.958641 -3.577982,3.986616 -6.880256,7.167102 -8.023668,7.727755 -1.403165,0.688015 -2.959049,0.762506 -4.280445,0.204932 z"
       id="path1013" /><path
       style="fill:none;stroke-width:0.166509"
       d="M 59.315286,75.035831 C 57.078853,74.092148 54.158898,71.090185 43.45085,58.725843 c -2.285094,-2.638546 -4.434689,-5.14867 -4.776878,-5.578053 -1.654333,-2.075876 -1.558088,-4.979759 0.229885,-6.936087 1.181079,-1.292288 2.358998,-1.837043 3.972221,-1.837043 2.298883,0 1.819056,-0.415749 10.573324,9.161318 l 7.825925,8.56147 1.480679,-1.534996 c 0.814372,-0.844248 2.986774,-3.333294 4.827558,-5.531214 4.052757,-4.839044 4.456302,-5.295168 6.910009,-7.810344 2.390059,-2.449933 3.102138,-2.847143 5.097749,-2.843612 1.633409,0.0029 2.63757,0.408985 3.775774,1.526965 2.013437,1.977663 2.232325,5.087644 0.509588,7.240256 -0.71515,0.893601 -9.037753,10.37141 -12.257285,13.958641 -3.577982,3.986616 -6.880256,7.167102 -8.023668,7.727755 -1.403165,0.688015 -2.959049,0.762506 -4.280445,0.204932 z"
       id="path1052" /><path
       style="fill:#0073ff;fill-opacity:1;stroke:none;stroke-width:0.166509;stroke-opacity:1"
       d="m 52.468507,74.244767 c -2.248223,-1.046517 -5.357888,-4.248841 -15.57285,-16.036875 -5.983332,-6.904745 -5.999231,-6.928678 -5.987796,-9.013854 0.0084,-1.527066 0.39212,-2.475596 1.466044,-3.623708 1.048273,-1.120688 2.040872,-1.579955 3.61117,-1.670859 0.997746,-0.05776 1.410242,-0.008 1.920573,0.231894 0.909856,0.427616 2.722598,2.281401 10.144382,10.374065 l 6.474486,7.059735 1.50654,-1.567369 c 0.828598,-0.862053 2.777381,-3.064857 4.330631,-4.895119 5.527307,-6.513067 8.993263,-10.171111 10.259766,-10.828371 0.81467,-0.422779 2.708128,-0.512463 3.844544,-0.182098 1.028834,0.29909 2.254117,1.269932 2.905952,2.302503 0.575565,0.911755 0.952275,2.505834 0.814489,3.446581 -0.241633,1.64977 -0.432547,1.918348 -5.398726,7.594944 -8.736804,9.986616 -12.973474,14.51234 -15.010602,16.034732 -1.734918,1.296541 -3.601194,1.568577 -5.308603,0.773799 z"
       id="path200" /></g></svg>
